<?xml version="1.0" encoding="UTF-8"?>
<svg width="700pt" height="550pt" version="1.1" viewBox="0 0 700 550" xmlns="http://www.w3.org/2000/svg" xmlns:xlink="http://www.w3.org/1999/xlink">
 <g>
  <path d="m113.73 119.84c-3.0898 0.003906-5.5977 2.5078-5.5977 5.6016v49.559c0 3.0938 2.5078 5.6016 5.5977 5.6016h472.53c3.0898 0 5.5977-2.5078 5.5977-5.6016v-49.559c0-3.0938-2.5078-5.5977-5.5977-5.6016z" fill-rule="evenodd" fill="#181819"/>
  <path d="m113.73 249.59c-3.0898 0-5.5977 2.5078-5.5977 5.6016v49.617-0.003906c0 3.0938 2.5078 5.6016 5.5977 5.6016h472.53c3.0898 0 5.5977-2.5078 5.5977-5.6016v-49.617 0.003906c0-3.0938-2.5078-5.6016-5.5977-5.6016z" fill-rule="evenodd" fill="#6d6c6c"/>
  <path d="m113.73 379.4c-3.0898 0-5.5977 2.5078-5.5977 5.5977v49.562c0 3.0938 2.5078 5.5977 5.5977 5.5977h472.53c3.0898 0 5.5977-2.5039 5.5977-5.5977v-49.562c0-3.0898-2.5078-5.5977-5.5977-5.5977z" fill-rule="evenodd" fill="#181819"/>
 </g>
</svg>
